# Blender v2.75 (sub 0) OBJ File: ''
# www.blender.org
mtllib box.mtl
o Cube
v 1.007424 0.009408 -1.015136
v 1.007424 0.009408 0.984864
v -0.992576 0.009408 0.984863
v -0.992576 0.009408 -1.015137
v 1.007425 2.009408 -1.015136
v 1.007424 2.009408 0.984864
v -0.992576 2.009408 0.984863
v -0.992576 2.009408 -1.015136
vt 0.000000 0.000000
vt 0.000000 1.000000
vt 1.000000 1.000000
vt 1.000000 0.000000
vn 0.000000 -1.000000 -0.000000
vn 0.000000 1.000000 0.000000
vn 1.000000 -0.000000 0.000000
vn -0.000000 -0.000000 1.000000
vn -1.000000 -0.000000 -0.000000
vn 0.000000 0.000000 -1.000000
usemtl Material
s off
f 1/1/1 2/2/1 3/3/1 4/4/1
f 5/1/2 8/2/2 7/3/2 6/4/2
f 1/1/3 5/2/3 6/3/3 2/4/3
f 2/1/4 6/2/4 7/3/4 3/4/4
f 3/1/5 7/2/5 8/3/5 4/4/5
f 5/1/6 1/2/6 4/3/6 8/4/6
